<svg xmlns="http://www.w3.org/2000/svg" version="1.0" width="48.000000pt" height="48.000000pt" viewBox="0 0 48.000000 48.000000" preserveAspectRatio="xMidYMid meet">

<g transform="translate(0.000000,48.000000) scale(0.100000,-0.100000)" fill="#704214" stroke="none">
<path d="M128 338 c-94 -86 -100 -93 -75 -96 l27 -3 0 -90 0 -89 70 0 70 0 0 60 c0 53 2 60 20 60 18 0 20 -7 20 -60 l0 -60 70 0 70 0 0 90 0 90 28 0 c25 1 18 9 -73 95 -55 52 -106 95 -112 95 -7 0 -59 -42 -115 -92z m173 -9 l59 -51 0 -89 0 -89 -30 0 -30 0 0 60 0 60 -60 0 -60 0 0 -60 0 -60 -30 0 -30 0 0 88 -1 87 58 52 c32 29 60 53 62 53 2 0 30 -23 62 -51z" fill="#704214"/>
</g>
</svg>